# xmcd CD database file generated by libcdaudio 0.99.6
# 
# Track frame offsets:
#       150
#       28607
#       62405
#       86930
#       114732
#       145970
#       177880
#       204395
# 
# Disc length: 3035 seconds
# 
# Revision: 2
# Processed by: cddbd v1.4PL0 Copyright (c) Steve Scherf et al.
# Submitted via: libcdaudio 0.99.6
# 
DISCID=6d0bd908
DTITLE=Cal Tjader - The Latin Vibe - Disk 1
DYEAR=2000
DGENRE=Jazz
TTITLE0=Guachi Guaro (Soul Sauce)
TTITLE1=Speak Low
TTITLE2=Cuban Fantasy
TTITLE3=Broadway
TTITLE4=Serenata
TTITLE5=Mindanao
TTITLE6=Naima
TTITLE7=Evil Ways
EXTD=YEAR: 2000
EXTT0=
EXTT1=
EXTT2=
EXTT3=
EXTT4=
EXTT5=
EXTT6=
EXTT7=
PLAYORDER=
